<svg id="site_logo" data-name="Layer 1" xmlns="http://www.w3.org/2000/svg" viewBox="0 0 214 35.88">
                    <defs>
                      <style>#site_logo .cls-1{fill:#066eb8;}#site_logo .cls-2{fill:#262122;}</style>
                    </defs>
                    <path class="cls-1" d="M136.35,67.75c.55,0,1.09-.08,1.64-.1,1.87-.05,3.74-.05,5.61.07.13,0,.26,0,.39,0a.52.52,0,0,0,.55-.45.55.55,0,0,0-.39-.64,2,2,0,0,0-.34,0c-.74-.06-1.48-.08-2.23-.1-.11,0-.23,0-.33-.06H139c-.08.09-.19.06-.29.06-.74,0-1.48,0-2.22.1a2,2,0,0,0-.35,0,.55.55,0,0,0-.37.71A.52.52,0,0,0,136.35,67.75Zm-12,23.41A51.56,51.56,0,0,1,134.14,89c1.32-.15,2.64-.26,4-.3a48.78,48.78,0,0,1,6.28.15c1.36.12,2.72.29,4.07.52.28,0,.56.1.85.13a.53.53,0,0,0,.59-.44.54.54,0,0,0-.36-.65.86.86,0,0,0-.23,0c-1.66-.29-3.34-.49-5-.64-1.42-.12-2.83-.16-4.35-.18l-1.66,0c-1.28,0-2.55.13-3.82.26s-2.37.3-3.55.51a50.7,50.7,0,0,0-7,1.77,1.19,1.19,0,0,0-.22.08.55.55,0,0,0,.34,1A2.13,2.13,0,0,0,124.39,91.16Zm12,.68c1.17-.09,2.34-.12,3.51-.12,1.59,0,3.18.06,4.76.2q1.53.15,3.06.39l.19,0a.58.58,0,0,0,.61-.49.53.53,0,0,0-.45-.63l-.15,0c-1.11-.17-2.22-.31-3.33-.41-1.51-.13-3-.19-4.13-.2-1.79,0-3.19.06-4.58.17-1.55.12-3.1.32-4.64.58a49.34,49.34,0,0,0-6,1.42l-.26.08a.5.5,0,0,0-.31.6.53.53,0,0,0,.53.44,1.35,1.35,0,0,0,.34-.06,53.8,53.8,0,0,1,5.58-1.32C132.87,92.19,134.62,92,136.39,91.84ZM123.84,79.29l.26-.08c1.46-.48,2.94-.89,4.43-1.24a49.25,49.25,0,0,1,5.38-1c1-.13,2.05-.22,3.07-.28,1.27-.07,2.53-.1,3.79-.09s2.4.07,3.64.2h.19a.48.48,0,0,0,.49-.49.53.53,0,0,0-.51-.62h-.15c-1.23-.12-2.47-.18-3.71-.2-1.43,0-2.86,0-4.29.12-1.17.08-2.34.2-3.5.36-1.39.19-2.77.44-4.15.75a50.22,50.22,0,0,0-5.07,1.42,1.3,1.3,0,0,0-.25.1.54.54,0,0,0-.25.7A.5.5,0,0,0,123.84,79.29ZM123.28,87a51.88,51.88,0,0,1,12.14-2.62c1.43-.12,2.86-.2,4.29-.21.85,0,1.69,0,2.54.06a3.68,3.68,0,0,0,.47,0,.49.49,0,0,0,.45-.31.54.54,0,0,0-.43-.79l-.78,0a57,57,0,0,0-6.13.13c-1.06.09-2.12.2-3.18.35-1.25.18-2.49.4-3.72.68a50.16,50.16,0,0,0-6,1.72,1.83,1.83,0,0,0-.32.14.52.52,0,0,0-.19.69.51.51,0,0,0,.6.3A1.51,1.51,0,0,0,123.28,87Zm-.43-1.36.3-.09a51.43,51.43,0,0,1,6.8-1.87c1.28-.25,2.56-.46,3.85-.62,1-.12,1.94-.21,2.92-.28s2.05-.11,3.08-.1a2,2,0,0,0,.35,0,.55.55,0,0,0,.47-.55.54.54,0,0,0-.49-.55h-.32l-1.81,0c-.68,0-1.5.08-2.32.14s-1.71.16-2.56.27c-1.32.17-2.63.4-3.92.68a50,50,0,0,0-6.49,1.84,1.12,1.12,0,0,0-.25.11.54.54,0,0,0,.39,1Zm1.59-8.08c.1,0,.2,0,.3-.07l1.53-.46a49.89,49.89,0,0,1,5.52-1.22c1-.17,2.06-.3,3.1-.41.84-.08,1.68-.15,2.53-.19,1.16,0,2.31-.09,3.47-.08h.32a.43.43,0,0,0,.33-.18.57.57,0,0,0,.07-.59.5.5,0,0,0-.45-.32,1.92,1.92,0,0,0-.24,0h-2c-1,0-1.87.07-2.78.14s-1.84.15-2.76.27c-1.21.15-2.41.35-3.61.59a49.8,49.8,0,0,0-5.4,1.41,1.83,1.83,0,0,0-.32.14.55.55,0,0,0-.18.63A.5.5,0,0,0,124.44,77.57Zm8.92,17.59c.92-.12,1.84-.22,2.76-.28s1.69-.09,2.54-.13,2,0,2.92,0a1.06,1.06,0,0,0,.31,0,.55.55,0,0,0,.44-.54.54.54,0,0,0-.42-.54,1.67,1.67,0,0,0-.39,0H139.1c-.82,0-1.64.05-2.46.09-.66,0-1.32.1-2,.17-1.23.12-2.46.29-3.68.51s-2.62.53-3.92.88a1,1,0,0,0-.29.11.53.53,0,0,0-.23.64.49.49,0,0,0,.54.35,1.55,1.55,0,0,0,.31-.07c1-.25,2-.48,3-.68S132.38,95.29,133.36,95.16Zm1.06-13.65c.53-.07,1.06-.11,1.59-.16a40.18,40.18,0,0,1,4.1-.19,47.84,47.84,0,0,1,5.07.27c1,.11,2,.23,3,.4a6.23,6.23,0,0,0,.74.09.52.52,0,0,0,.53-.47.54.54,0,0,0-.37-.62l-.34-.07c-1.33-.2-2.65-.38-4-.5-1.53-.13-3.06-.22-4.75-.22-1.26,0-2.66.08-4.06.18l-1.56.15a1.7,1.7,0,0,0-.31.06.47.47,0,0,0-.34.43A.59.59,0,0,0,134.42,81.51ZM145,84.82q-1.64-.16-3.27-.21l-1.41,0a.82.82,0,0,0-.27,0,.55.55,0,0,0,0,1.09,2.55,2.55,0,0,0,.39,0,49.49,49.49,0,0,1,6.66.48c1.3.19,2.59.41,3.87.7l1.56.36a.83.83,0,0,0,.35,0,.59.59,0,0,0,.4-.56.5.5,0,0,0-.35-.54c-.15,0-.31-.08-.46-.12-1.5-.36-3-.65-4.55-.88C147,85,146,84.91,145,84.82Zm-12.37,2.93c.84-.13,1.68-.23,2.52-.32,1.06-.1,2.13-.17,3.2-.2a57.9,57.9,0,0,1,5.89.13,1.7,1.7,0,0,0,.39,0,.53.53,0,0,0,.44-.56.5.5,0,0,0-.43-.53l-.43,0c-1.36-.08-2.73-.14-4.24-.15-1.05,0-2.25,0-3.45.12s-2.46.2-3.69.38a4.8,4.8,0,0,0-.5.09.53.53,0,0,0-.36.73A.54.54,0,0,0,132.66,87.75Zm4.05-2,.35,0a.53.53,0,0,0,.43-.54.34.34,0,0,1,0-.1.55.55,0,0,0-.6-.46c-.41,0-.83,0-1.24.09-1.52.14-3,.33-4.53.59a53.42,53.42,0,0,0-5.85,1.38l-.29.1a.47.47,0,0,0-.28.4.57.57,0,0,0,.63.62,2,2,0,0,0,.26-.06c1.18-.35,2.36-.65,3.56-.91,1.55-.34,3.11-.61,4.69-.8C134.79,86,135.74,85.85,136.71,85.8Zm-3.13,10.84c.92-.12,1.84-.2,2.76-.28,1.09-.08,2.18-.11,3.27-.13a3,3,0,0,0,.31,0,.47.47,0,0,0,.32-.21.56.56,0,0,0-.41-.88h-.19l-1.37,0h0c-.22,0-.44,0-.66,0-1.38,0-2.75.18-4.12.35s-2.5.35-3.74.61c-.56.11-1.12.25-1.67.37a.57.57,0,0,0,.21,1.12l.26-.06,1.22-.27C131,97,132.3,96.81,133.58,96.64Zm6.91,0c-2,0-2.92,0-4.68.16-.78.06-1.56.13-2.33.24l-.23,0a.57.57,0,0,0-.34.63.5.5,0,0,0,.51.44,2,2,0,0,0,.35,0l1.64-.17c1-.11,2.07-.17,3.11-.19A50.68,50.68,0,0,1,145,98h.31a.47.47,0,0,0,.35-.15.58.58,0,0,0,.14-.61.46.46,0,0,0-.43-.34c-.5,0-1-.1-1.48-.13C142.68,96.67,141.43,96.64,140.49,96.65Zm1.07-7.53a55.85,55.85,0,0,0-5.93.16c-1.09.09-2.17.21-3.26.37-.43.07-.87.14-1.3.23a.51.51,0,0,0-.43.6.53.53,0,0,0,.58.5,1.24,1.24,0,0,0,.27,0l1-.16c1.24-.21,2.48-.34,3.72-.43.93-.07,1.85-.12,2.56-.12,1.11,0,2,0,2.91,0a1.08,1.08,0,0,0,.31,0,.55.55,0,0,0,.43-.57.49.49,0,0,0-.43-.51A2.09,2.09,0,0,0,141.56,89.12Zm-4.63,3.08c-1.29,0-2.57.19-3.84.35a51.34,51.34,0,0,0-5.07.93c-.34.08-.68.15-1,.25a.55.55,0,0,0-.36.72.54.54,0,0,0,.67.38l.15,0q1.68-.43,3.39-.75c1.33-.24,2.67-.44,4-.57.9-.09,1.81-.17,2.72-.19a2.09,2.09,0,0,0,.35,0,.49.49,0,0,0,.36-.37.56.56,0,0,0-.55-.72A7.5,7.5,0,0,0,136.93,92.2ZM126.85,73.84a2.09,2.09,0,0,0,.34-.08c1.24-.31,2.48-.58,3.74-.8a53.78,53.78,0,0,1,6.2-.74,2.6,2.6,0,0,0,.39,0,.47.47,0,0,0,.37-.44.55.55,0,0,0-.56-.66l-.77.07c-.73.06-1.46.11-2.18.19-1.22.13-2.43.31-3.63.53s-2.66.53-4,.88l-.23.07a.52.52,0,0,0-.31.64A.55.55,0,0,0,126.85,73.84Zm-1.36,1.91a1.47,1.47,0,0,0,.3-.08,49.23,49.23,0,0,1,9.7-1.81,2,2,0,0,0,.34,0,.56.56,0,0,0-.12-1.1l-.23,0c-1.12.1-2.23.22-3.34.38a50.11,50.11,0,0,0-5.57,1.18l-1.35.4a.51.51,0,0,0-.37.64A.54.54,0,0,0,125.49,75.75ZM123.3,81a3.4,3.4,0,0,0,.34-.12A47.91,47.91,0,0,1,130.73,79c.8-.14,1.61-.27,2.43-.38a.9.9,0,0,0,.22-.06.56.56,0,0,0-.22-1.08l-.18,0c-1,.12-2,.29-2.93.48a52,52,0,0,0-6.85,1.83,1.48,1.48,0,0,0-.29.12.53.53,0,0,0-.23.67A.51.51,0,0,0,123.3,81Zm6.33-1.39a1.66,1.66,0,0,0-.37.09.51.51,0,0,0-.32.6.56.56,0,0,0,.59.48l.25,0c.46-.08.92-.18,1.38-.25,1.5-.25,3-.45,4.53-.58,1.24-.12,2.49-.19,3.74-.21h.27a.54.54,0,0,0,.43-.54.55.55,0,0,0-.45-.55h-.35a46.3,46.3,0,0,0-5.26.35C132.58,79.07,131.1,79.29,129.63,79.58ZM152,82.94l-.23-.06-1.56-.33c-1.2-.24-2.41-.43-3.62-.58s-2.15-.22-3.23-.29l-.51,0a.55.55,0,0,0-.51.23.56.56,0,0,0,.36.88l.19,0c1.34.07,2.67.2,4,.38,1.54.21,3.06.48,4.57.84.1,0,.2.05.3.06a.54.54,0,0,0,.57-.48A.53.53,0,0,0,152,82.94Zm-10.28,17.84a1.53,1.53,0,0,0,.43,0,.49.49,0,0,0,.37-.41.54.54,0,0,0-.51-.68h-.16l-2.21,0A54.76,54.76,0,0,0,134,100l-.39,0a.49.49,0,0,0-.38.35.57.57,0,0,0,.52.75l.27,0,1.67-.16c1.22-.13,2.45-.16,3.67-.2C140.15,100.72,140.93,100.75,141.71,100.78ZM122.87,84.12l.3-.09a54.94,54.94,0,0,1,7-1.89,3.2,3.2,0,0,0,.42-.1.53.53,0,0,0,.39-.52.55.55,0,0,0-.66-.57L130,81l-2,.44A53.14,53.14,0,0,0,122.8,83a1.33,1.33,0,0,0-.33.13.53.53,0,0,0-.2.68A.5.5,0,0,0,122.87,84.12ZM139.1,99.25h.16a.55.55,0,0,0,0-1.1h-1.53v0l-1.28.07c-.66.05-1.33.1-2,.17-.89.1-1.78.22-2.66.37-.18,0-.36,0-.54.09a.55.55,0,0,0-.39.67.53.53,0,0,0,.6.44l.34,0a43.15,43.15,0,0,1,5.66-.62Zm-7.65-29.42a1.72,1.72,0,0,0,.39,0c1.09-.18,2.18-.32,3.28-.42s2.13-.18,3.2-.2l.86,0a.55.55,0,0,0,.41-.19.57.57,0,0,0,.07-.59.49.49,0,0,0-.45-.33H139l-1.17,0c-1.88.08-3.74.27-5.59.53q-.47.06-.93.15a.51.51,0,0,0-.45.58A.55.55,0,0,0,131.45,69.83Zm9.94.8a.54.54,0,0,0,.48-.57.55.55,0,0,0-.51-.54h-.27c-1.38,0-2.76,0-4.14.08-1,.05-2,.14-3,.24a1.59,1.59,0,0,0-.3.06.44.44,0,0,0-.33.3.59.59,0,0,0,.6.79,3.82,3.82,0,0,1,.45-.06c1.33-.14,2.67-.25,4-.26.87,0,1.74,0,2.62,0Zm7.55,28.23-.15,0c-.85-.15-1.7-.27-2.55-.37-1.19-.14-2.38-.23-3.58-.3-.44,0-.88,0-1.32,0a.48.48,0,0,0-.49.5.55.55,0,0,0,.6.61c1.17,0,2.34.11,3.51.22.79.08,1.57.17,2.36.29.48.07,1,.15,1.43.21a.52.52,0,0,0,.63-.43A.55.55,0,0,0,148.94,98.86Zm-5.82,2.37a2.56,2.56,0,0,0-.39,0c-.86,0-1.71-.06-2.59,0s-1.75,0-2.64,0a2,2,0,0,0-.42,0,.56.56,0,0,0-.37.65.51.51,0,0,0,.52.44h.23l.51,0c1.44,0,2.89,0,4.33,0,.24,0,.47,0,.7,0a.52.52,0,0,0,.57-.48A.56.56,0,0,0,143.12,101.23ZM123.8,89.85A42.19,42.19,0,0,1,129,88.4l.23-.06a.55.55,0,0,0,.3-.68.53.53,0,0,0-.59-.4,2.05,2.05,0,0,0-.34.07l-1.44.36c-1.21.32-2.42.68-3.61,1.09a1.53,1.53,0,0,0-.39.17.55.55,0,0,0-.17.64.54.54,0,0,0,.55.35ZM150.18,73.5a1.86,1.86,0,0,0-.34-.07c-1.2-.21-2.41-.39-3.62-.55l-.84-.09h-.13a.55.55,0,0,0-.51.54.5.5,0,0,0,.43.56l.38,0c1.22.13,2.42.32,3.63.53a8.09,8.09,0,0,0,.84.12.49.49,0,0,0,.54-.45A.52.52,0,0,0,150.18,73.5Zm-7,3.64a.49.49,0,0,0-.51.34.55.55,0,0,0,.48.76l.86.07c1.12.09,2.25.22,3.37.38l.27,0a.56.56,0,0,0,.57-.25.59.59,0,0,0,0-.6.55.55,0,0,0-.41-.26l-1.7-.22-2-.2C143.79,77.16,143.47,77.14,143.16,77.14ZM147.39,70a.56.56,0,0,0-.26,1.08.86.86,0,0,0,.23,0q1.86.28,3.72.69a4.51,4.51,0,0,0,.53.1.45.45,0,0,0,.47-.22.58.58,0,0,0-.28-.87,1.47,1.47,0,0,0-.3-.08c-.88-.18-1.76-.36-2.64-.52C148.36,70.15,147.86,70.08,147.39,70Zm-24.46,12.6.31-.09c1.19-.43,2.39-.79,3.6-1.14.11,0,.23-.06.34-.11a.49.49,0,0,0,.31-.32.55.55,0,0,0-.1-.55.47.47,0,0,0-.52-.15l-1,.26q-1.52.43-3,1a1.55,1.55,0,0,0-.32.14.53.53,0,0,0-.22.61A.55.55,0,0,0,122.93,82.61ZM154.4,94.13a2,2,0,0,0-.26-.09c-.45-.12-.9-.26-1.35-.37l-2.48-.57a.57.57,0,0,0-.71.56.51.51,0,0,0,.38.53l.23.06c.89.18,1.78.38,2.66.6l1.21.3a.51.51,0,0,0,.62-.35A.52.52,0,0,0,154.4,94.13Zm-25.9-2.6a1.8,1.8,0,0,0,.22-.06.48.48,0,0,0,.33-.48.59.59,0,0,0-.7-.6l-.23,0c-1.19.32-2.38.65-3.56,1l-.32.12a.45.45,0,0,0-.25.29.56.56,0,0,0,.64.72,2.56,2.56,0,0,0,.34-.1A35.35,35.35,0,0,1,128.5,91.53Zm8.82-18.73a.57.57,0,0,0,.36.88.82.82,0,0,0,.27,0c.64,0,1.28,0,1.94,0s1.28,0,1.93,0a.82.82,0,0,0,.31,0,.5.5,0,0,0,.39-.55.48.48,0,0,0-.4-.51,2,2,0,0,0-.34,0c-1.28,0-2.56,0-3.83,0a2,2,0,0,0-.35,0A.4.4,0,0,0,137.32,72.8Zm10.6,24a.56.56,0,0,0,.18-1.11.76.76,0,0,0-.16,0c-1.24-.2-2.5-.32-3.76-.43h-.08a.53.53,0,0,0-.58.46.55.55,0,0,0,.44.64,3.15,3.15,0,0,0,.43.05c.66.07,1.32.13,2,.21S147.4,96.79,147.92,96.85Zm-.16-20.76a.5.5,0,0,0-.57.24.56.56,0,0,0,.31.85l.27,0,1.61.28c.51.1,1,.2,1.53.32a.53.53,0,0,0,.67-.53.54.54,0,0,0-.34-.55.79.79,0,0,0-.22-.06l-2.33-.46Zm-2.58-6.73.27,0,2.55.34.55.08c.4,0,.62-.16.66-.47a.56.56,0,0,0-.45-.63l-.16,0-2.66-.37a5.41,5.41,0,0,0-.58-.07.51.51,0,0,0-.55.48A.55.55,0,0,0,145.18,69.36Zm-9.7,9c.65-.08,1.3-.13,2-.16l1,0a.51.51,0,0,0,.54-.47.55.55,0,0,0-.52-.64h-.65l-2.39.18a1.08,1.08,0,0,0-.19,0,.53.53,0,0,0-.38.7A.57.57,0,0,0,135.48,78.38Zm-7-6.5a.6.6,0,0,0,.35,0l2.72-.51.22,0a.53.53,0,0,0,.36-.65.55.55,0,0,0-.58-.45h-.13l-2.76.53a1,1,0,0,0-.29.1.55.55,0,0,0-.25.57A.49.49,0,0,0,128.47,71.88Zm18.91,17.71-2.71-.31a.6.6,0,0,0-.23,0,.58.58,0,0,0-.44.57.51.51,0,0,0,.43.52,1.25,1.25,0,0,0,.19,0l2.1.24.77.09a.52.52,0,0,0,.61-.51.55.55,0,0,0-.49-.6Zm9.2.7-.29-.11-2.53-.77a1,1,0,0,0-.23,0,.53.53,0,0,0-.56.43.49.49,0,0,0,.28.61,2.19,2.19,0,0,0,.34.1l2.38.74.22.06a.54.54,0,0,0,.68-.55A.53.53,0,0,0,156.58,90.29Zm-2.11-11.2a.56.56,0,0,0-.61.45.5.5,0,0,0,.32.59l.26.08,2.33.76A1.27,1.27,0,0,0,157,81a.53.53,0,0,0,.64-.31.54.54,0,0,0-.25-.7,1.79,1.79,0,0,0-.32-.13l-2.3-.74Zm-8,5.49,1.89.29.31,0a.53.53,0,0,0,.57-.47.55.55,0,0,0-.39-.63l-.19,0-1.85-.28a2.58,2.58,0,0,0-.38,0,.51.51,0,0,0-.58.46.54.54,0,0,0,.39.63Zm-1.6,8.87a.56.56,0,0,0,.51-.55.5.5,0,0,0-.43-.55l-.23,0L143,92.16h-.23a.54.54,0,0,0-.55.54.52.52,0,0,0,.47.57l.19,0c.6,0,1.19.08,1.78.15A.67.67,0,0,0,144.84,93.45Zm6.49-3.15a.58.58,0,0,0-.34.11.64.64,0,0,0-.21.63.5.5,0,0,0,.39.4l.16,0,1.74.43.19,0a.54.54,0,0,0,.59-.41.5.5,0,0,0-.3-.64l-.26-.08c-.59-.19-1.18-.32-1.78-.47Zm-7.2-19.1a.51.51,0,0,0-.46.46.53.53,0,0,0,.54.65c.55,0,1.09.09,1.63.15a1.61,1.61,0,0,0,.31,0,.5.5,0,0,0,.45-.37.54.54,0,0,0-.11-.58.49.49,0,0,0-.34-.15l-1.54-.17C144.47,71.2,144.3,71.19,144.13,71.2ZM131.64,98.4a.53.53,0,0,0,.3-.64.54.54,0,0,0-.52-.44l-.16,0-1.72.34-.15,0a.57.57,0,0,0-.32.61.56.56,0,0,0,.57.47l.24,0,1.61-.32Zm15,1.66-.23,0-1.43-.17h0a2.11,2.11,0,0,0-.35,0,.48.48,0,0,0-.42.24.55.55,0,0,0,.41.87c.59.06,1.19.11,1.78.21a.53.53,0,0,0,.61-.42A.54.54,0,0,0,146.6,100.06Zm5.5-3.57a2,2,0,0,1-.26-.06l-1.34-.28-.31,0a.41.41,0,0,0-.28.11.62.62,0,0,0-.21.63.49.49,0,0,0,.4.38l.19,0,1.45.31.17,0a.52.52,0,0,0,.59-.38A.54.54,0,0,0,152.1,96.49Zm5.24-9-.14-.06-1.59-.52-.22,0a.51.51,0,0,0-.45.2.55.55,0,0,0,.25.86c.58.22,1.17.42,1.76.61a.53.53,0,0,0,.69-.33A.53.53,0,0,0,157.34,87.52Zm-4.21-12.21,1,.29c.23.07.45.13.68.18a.54.54,0,0,0,.65-.56.53.53,0,0,0-.17-.37.55.55,0,0,0-.24-.12l-1.54-.44a.62.62,0,0,0-.19,0,.49.49,0,0,0-.48.27A.52.52,0,0,0,153.13,75.31Z" transform="translate(-122.18 -66.46)"></path>
                    <path class="cls-2" d="M336.12,85.48a2,2,0,0,0-.23-.78,2.81,2.81,0,0,0-.9-1,5.66,5.66,0,0,0-1.17-.61c-.56-.21-1.14-.37-1.71-.53a4.7,4.7,0,0,1-.66-.24A1.08,1.08,0,0,1,331,82a.7.7,0,0,1,.32-1.12l.19,0a2.64,2.64,0,0,1,1.12,0,6.92,6.92,0,0,1,2.53.87c.07,0,.13.1.22.06V78.8s0,0,0,0,0,0,0,0a.76.76,0,0,1-.83.14l-.45-.14a7.22,7.22,0,0,0-2.61-.34,4.92,4.92,0,0,0-2.19.64,3.27,3.27,0,0,0-1.74,2.75,3.06,3.06,0,0,0,1.26,2.79,4.07,4.07,0,0,0,1.17.61l1,.31a5.36,5.36,0,0,1,1.1.4,1.49,1.49,0,0,1,.5.36.67.67,0,0,1,.12.76.88.88,0,0,1-.43.44,2.22,2.22,0,0,1-.94.21,4.47,4.47,0,0,1-1.31-.19,9.07,9.07,0,0,1-2.06-.92c-.09,0-.16-.14-.27-.12s0,.12,0,.18v3a.76.76,0,0,0,0,.15.06.06,0,0,0,.11,0,.8.8,0,0,1,.83-.17l.34.1a9.1,9.1,0,0,0,3.52.28,5.42,5.42,0,0,0,2-.62A3.31,3.31,0,0,0,336,87.58a2.73,2.73,0,0,0,.1-.41,4.62,4.62,0,0,1,.08-.65V85.9A3,3,0,0,1,336.12,85.48Zm-72.54-6.81h-4s0,0,0,0a.07.07,0,0,0,0,.06.58.58,0,0,1,.21.69.88.88,0,0,1,0,.15c-.17.67-.35,1.33-.53,2-.23.84-.45,1.68-.67,2.52a.76.76,0,0,1,0,.15s0,.08-.06.06,0,0-.06-.08,0,0,0-.07l-.06-.27-1.17-4.32c-.08-.32-.14-.62.19-.84a.08.08,0,0,0,0-.07.07.07,0,0,0-.06,0h-3.83c-.05,0-.1,0-.13.07a.5.5,0,0,0,.07.08.54.54,0,0,1,.19.59.83.83,0,0,1,0,.15l-1.21,4.51c0,.06,0,.16-.12.17L251,79.6a2.56,2.56,0,0,1-.05-.27.47.47,0,0,1,.13-.46l.11-.11a.05.05,0,0,0,0-.09H247c-.06,0-.15,0-.17,0s.07.12.13.15a1.13,1.13,0,0,1,.41.65c.44,1.52.88,3,1.33,4.56l1.62,5.57c.07.25.1.25.31.25h2.5l.25,0,1.78-6.49c0,.11.07.2.1.3l.63,2.21c.36,1.25.72,2.5,1.07,3.75.07.27.1.25.35.25h2.38a.41.41,0,0,0,.24,0c0-.09.07-.18.1-.28.52-1.76,1.05-3.51,1.57-5.26q.72-2.37,1.42-4.74a1.14,1.14,0,0,1,.56-.77s0,0,0,0V78.7S263.59,78.67,263.58,78.67ZM240,87.73a2.33,2.33,0,0,0,.56-.57,5.48,5.48,0,0,0,1-2.38,3.25,3.25,0,0,0,.08-.69c0-.11,0-.14-.14-.15h-2.66s-.1,0-.13,0,0,.09.08.12a.5.5,0,0,1,.19.48,2,2,0,0,1-.05.35,3.32,3.32,0,0,1-.54,1.1l-1.88-2a6.72,6.72,0,0,0,1.21-.81,3.45,3.45,0,0,0,.84-1,2.27,2.27,0,0,0,0-2.27,2.53,2.53,0,0,0-1.39-1.14,5.45,5.45,0,0,0-3.52-.17,3.86,3.86,0,0,0-1.47.78,2.17,2.17,0,0,0-.77,1.53,3.11,3.11,0,0,0,1,2.54l.15.13-.2.09A4.15,4.15,0,0,0,230.71,85a3.07,3.07,0,0,0,.37,4.08,4.27,4.27,0,0,0,1,.67,5.37,5.37,0,0,0,2.46.49,7.3,7.3,0,0,0,3-.72c.11-.05.21-.15.28-.15.17.15.31.26.44.39a.42.42,0,0,0,.31.13h3.36c.06,0,.11,0,.12,0C241.28,89.19,240.7,88.41,240,87.73Zm-4.63.09a2.88,2.88,0,0,1-1.24,0,1.38,1.38,0,0,1-.8-.58,1.06,1.06,0,0,1-.07-1.11,1.85,1.85,0,0,1,.46-.58l.29-.23,2.19,2.32A2.39,2.39,0,0,1,235.37,87.82Zm.89-6.33a1.26,1.26,0,0,1-.31.34c-.19.14-.39.27-.59.39a2.92,2.92,0,0,0-.32.21c-.16-.15-.32-.3-.47-.46a1.69,1.69,0,0,1-.39-.53.79.79,0,0,1,.37-1.09,1.32,1.32,0,0,1,.56-.14,2,2,0,0,1,.69.11.84.84,0,0,1,.57.72A.66.66,0,0,1,236.26,81.49ZM200.81,84l-.28-.1s0,0,0,0l.2-.11a2,2,0,0,0,1-1.15,2.85,2.85,0,0,0,0-1.91,2.72,2.72,0,0,0-2.14-1.9,7.65,7.65,0,0,0-1.51-.14h-5.36s-.11,0-.13,0,0,.09.06.12a.94.94,0,0,1,.38.78c0,.1,0,.2,0,.31v8.69c0,.13,0,.26,0,.39a1,1,0,0,1-.33.69l-.09.07a.11.11,0,0,0,0,.07s0,0,.09,0h6.68a4.12,4.12,0,0,0,1.58-.38,2.71,2.71,0,0,0,1.53-1.82,3.49,3.49,0,0,0,.08-1.51A2.53,2.53,0,0,0,200.81,84Zm-4.48-3.17h1.44a.8.8,0,0,1,.15,0,1,1,0,0,1,.9,1,1,1,0,0,1-.92,1,3,3,0,0,1-.42,0h-1.15Zm3.09,5.79a1.18,1.18,0,0,1-1,1,3,3,0,0,1-.42,0h-1.66c0-.41,0-.82,0-1.23V85.19h1.87a1.23,1.23,0,0,1,.56.15A1.18,1.18,0,0,1,199.42,86.64Zm82.74,2.44c-.44-.88-.89-1.76-1.34-2.64a5.55,5.55,0,0,0-1.23-1.69l.26-.1a2.62,2.62,0,0,0,1.61-1.74,3.43,3.43,0,0,0,.14-1.23,3,3,0,0,0-1-2.12,3.37,3.37,0,0,0-1.56-.77,6.11,6.11,0,0,0-1.28-.13h-5.5a.06.06,0,0,0-.06,0s0,.07,0,.1a1.15,1.15,0,0,1,.42,1v9.12a1.08,1.08,0,0,1-.37.79s-.05,0-.06.05a.07.07,0,0,0,0,.07.07.07,0,0,0,0,0h4s0,0,0,0,0-.06,0-.07a1.16,1.16,0,0,1-.44-1.07v-.31c0-.88,0-1.77,0-2.65,0-.09,0-.18,0-.24h.56a.76.76,0,0,1,.71.4,3.84,3.84,0,0,1,.18.35l1.63,3.45a.3.3,0,0,0,.3.19h3.43a.08.08,0,0,0,.09-.08A1.41,1.41,0,0,1,282.16,89.08Zm-4.05-6.26a.94.94,0,0,1-.63.35l-.39,0h-1.25v-2.3h1.44a1,1,0,0,1,1,.69A1.15,1.15,0,0,1,278.11,82.82Zm-86.93,6.93a1.64,1.64,0,0,1-.7-1q-1.75-4.56-3.52-9.12c0-.1-.08-.2-.1-.3a.51.51,0,0,1,.15-.6s0-.06,0-.11h-4.72c-.06,0-.15,0-.17,0s0,.12.09.18a.55.55,0,0,1,.08.45c0,.11-.07.22-.11.33-.76,2-1.51,4.07-2.26,6.1-.41,1.08-.81,2.16-1.21,3.25a1.36,1.36,0,0,1-.58.75s-.07,0,0,.13h4l-.09-.11c-.29-.19-.33-.28-.24-.61a1.8,1.8,0,0,1,.05-.19l.46-1.32c0-.06.05-.07.11-.07h4.08c.16.45.32.87.46,1.3a1.66,1.66,0,0,1,.11.38.38.38,0,0,1-.19.46l-.07,0a.14.14,0,0,0,0,.07s0,0,0,0h4.38a.08.08,0,0,0,.08-.07A.17.17,0,0,0,191.18,89.75Zm-8.12-4.41,1.23-3.59s.08.08.09.13c.41,1.14.81,2.29,1.22,3.46Zm40.57,1.81s0-.05,0-.05a.08.08,0,0,0-.07,0,1,1,0,0,1-.44.31,1.45,1.45,0,0,1-.54.08h-4V85.32h3.25a.74.74,0,0,1,.62.26s.07.08.13,0V82.73s0,0,0,0h0a.9.9,0,0,1-.87.32h-2.81a.5.5,0,0,1-.27,0V81h3.89a.87.87,0,0,1,.8.38l0,0s.1,0,.1,0,0-.11,0-.16V79a1.34,1.34,0,0,0,0-.2.12.12,0,0,0-.13-.11h-8.32s-.05,0-.06,0a.11.11,0,0,0,0,.06,1.19,1.19,0,0,1,.45,1v8.82a3.73,3.73,0,0,1,0,.47.91.91,0,0,1-.33.6s-.12.06-.09.17h8.62c.07,0,.12,0,.12-.12a1.21,1.21,0,0,0,0-.19V87.34A1.21,1.21,0,0,0,223.63,87.15ZM293,87.09a1.16,1.16,0,0,1-1,.41c-1.33,0-2.65,0-4,0V85.32h3.4a.59.59,0,0,1,.42.19l.11.11s.05,0,.07,0,0,0,0-.06a.4.4,0,0,1,0-.11V82.88c0-.06,0-.14,0-.18s-.13.06-.18.11a.8.8,0,0,1-.61.2H288V81l0,0h3.75a.91.91,0,0,1,.91.4h.07s.05,0,.05,0v-.12c0-.73,0-1.46,0-2.19,0-.45,0-.41-.42-.41h-8a.07.07,0,0,0-.06,0s0,.07,0,.1a1.06,1.06,0,0,1,.42.88v8.89c0,.12,0,.24,0,.35a1,1,0,0,1-.37.79l0,0s-.06,0-.05.1.05,0,.08,0h8.48c.17,0,.18,0,.18-.18V87.2S293.1,87.1,293,87.09Zm21.4,0a1.42,1.42,0,0,1-1.24.4h-3.78V85.32h3.33a.73.73,0,0,1,.52.22.3.3,0,0,0,.08.08.06.06,0,0,0,.07,0,.07.07,0,0,0,0-.06,1.77,1.77,0,0,0,0-.23c0-.78,0-1.56,0-2.34a1.92,1.92,0,0,0,0-.24.07.07,0,0,0,0-.06.07.07,0,0,0-.1,0,.78.78,0,0,1-.73.29h-3.17V81l.05,0h4a.73.73,0,0,1,.57.3l.11.11.07,0a1.34,1.34,0,0,0,0-.2v-2.1c0-.5,0-.45-.43-.45h-7.94c-.05,0-.11,0-.13,0s0,.09.06.12a1,1,0,0,1,.38.82c0,.1,0,.2,0,.31v8.62c0,.13,0,.26,0,.39a1,1,0,0,1-.34.72l-.09.08s0,0,0,.06,0,0,0,0h8.44c.24,0,.25,0,.25-.23,0-.82,0-1.64,0-2.46C314.45,87.16,314.47,87.11,314.41,87.1Zm9.48-3.66a6.91,6.91,0,0,0-.78-.36c-.56-.21-1.13-.37-1.71-.54a4,4,0,0,1-.66-.23,1.2,1.2,0,0,1-.4-.31.7.7,0,0,1,.3-1.14l.15,0a2.65,2.65,0,0,1,1.12,0,7.21,7.21,0,0,1,2.54.86c.07,0,.13.13.25.07V78.79a.08.08,0,0,0,0,0h-.06a.62.62,0,0,1-.76.15l-.49-.14a6.79,6.79,0,0,0-3.2-.27,4.9,4.9,0,0,0-1.8.7,3.36,3.36,0,0,0-1.26,1.46,3.25,3.25,0,0,0,1.38,4.21l.46.22a5.61,5.61,0,0,0,1.07.36,8.65,8.65,0,0,1,1.19.38,2.21,2.21,0,0,1,.57.34.73.73,0,0,1-.09,1.26,1.48,1.48,0,0,1-.54.21,3.31,3.31,0,0,1-1.47-.05,7.72,7.72,0,0,1-2.3-.95l-.27-.16c-.06,0-.12,0-.12.08a.22.22,0,0,0,0,.08c0,1,0,2,0,3.08,0,0,0,.11,0,.14h0s.05,0,.06,0a.6.6,0,0,1,.58-.18c.19,0,.38.08.57.13a9,9,0,0,0,3.51.28,5.33,5.33,0,0,0,2.1-.7,3.23,3.23,0,0,0,1.47-1.94,4.64,4.64,0,0,0,.16-1.39A2.88,2.88,0,0,0,323.89,83.44ZM176.1,78.81c-.4-.09-.81-.2-1.21-.28a7.62,7.62,0,0,0-4.31.27,5.31,5.31,0,0,0-3.26,3.06,6.33,6.33,0,0,0-.31,3.75,5.2,5.2,0,0,0,2.58,3.55,5.8,5.8,0,0,0,1.33.57,8.5,8.5,0,0,0,4.25.12,8.21,8.21,0,0,0,1.59-.52A.34.34,0,0,0,177,89c0-.8,0-1.59,0-2.38,0,0,0-.1,0-.14s-.12,0-.18,0a7.4,7.4,0,0,1-2.05.74,4.23,4.23,0,0,1-2.12,0,3,3,0,0,1-2.15-2.07,3,3,0,0,1-.12-1.16,3,3,0,0,1,1.41-2.43,3.32,3.32,0,0,1,1.62-.51,6.2,6.2,0,0,1,3.32.73.51.51,0,0,0,.28.12.45.45,0,0,0,0-.11c0-1,0-2.07,0-3.16C176.57,78.89,176.53,78.9,176.1,78.81ZM213,87.09l-.07.06a1.08,1.08,0,0,1-.77.34h-3.58V80c0-.15,0-.29,0-.43a.94.94,0,0,1,.35-.75l.09-.08a.08.08,0,0,0,0-.1h-4c-.05,0-.11,0-.14.07s0,.06.06.08a1,1,0,0,1,.4.77c0,.14,0,.28,0,.43v8.54c0,.13,0,.26,0,.39a1,1,0,0,1-.4.8s-.07.05,0,.12a.84.84,0,0,0,.32,0h7.73a.11.11,0,0,0,.12-.12V87.22S213.07,87.11,213,87.09Zm90.85,0s-.05,0-.07,0a1.12,1.12,0,0,1-.94.38h-3.44s0,0,0-.08V80.09c0-.15,0-.29,0-.43a1.08,1.08,0,0,1,.41-.85s0,0,0,0,0,0,0-.06,0,0,0,0h-4s-.11,0-.14,0,0,.09.07.12a1,1,0,0,1,.38.82,2.44,2.44,0,0,1,0,.27v8.7c0,.12,0,.24,0,.35a1,1,0,0,1-.34.72l-.11.11s0,.07,0,.07h8a.12.12,0,0,0,.12-.13V87.18S303.88,87.1,303.83,87.1Zm-35,1.6V80a2.92,2.92,0,0,1,0-.51,1,1,0,0,1,.33-.6l.09-.07a.09.09,0,0,0,0-.07s0,0-.05,0h-4a.07.07,0,0,0-.05,0,.08.08,0,0,0,0,.07,1.2,1.2,0,0,1,.45,1.11c0,.1,0,.21,0,.31v5.23c0,1,0,2,0,3.08v.31a1.08,1.08,0,0,1-.41.93s-.06,0,0,.09.07,0,.1,0h4a0,0,0,0,0,0,0s0,0,0-.06A1.24,1.24,0,0,1,268.8,88.7Z" transform="translate(-122.18 -66.46)"></path>
                  </svg>